<?xml version="1.0" encoding="utf-8" ?>
<!-- Generator: Adobe Illustrator 22.1.0, SVG Export Plug-In . SVG Version: 6.00 Build 0)  -->
<svg
  version="1.1"
  id="Layer_1"
  xmlns="http://www.w3.org/2000/svg"
  xmlns:xlink="http://www.w3.org/1999/xlink"
  x="0px"
  y="0px"
  viewBox="0 0 500 500"
  style="enable-background:new 0 0 500 500;"
  xml:space="preserve"
  width="50px"
  height="50px"
>
<style type="text/css">
	.st0{fill:#E87A00;}
	.st1{fill:#FF0707;}
	.st2{fill:#C70201;}
	.st3{fill:#FFFDFD;}
</style>
<g>
	<path
      class="st0"
      d="M249.5,145.3c1.9-1.8,3.8-3.6,5.8-5.4c2.8-2.6,5.8-5,8.8-7.3c3.5-2.8,7.2-5.3,11-7.7c3.8-2.4,7.6-4.7,11.6-6.7
		c4.4-2.2,8.9-4.4,13.5-6.1c6.8-2.5,13.6-4.9,20.8-6.3c4.9-1,9.8-2,14.9-2.5c3.6-0.4,7.2-0.7,10.8-0.9c3.9-0.2,7.7-0.3,11.6-0.1
		c8.6,0.3,17.1,1.5,25.6,3.2c5.4,1.1,10.6,2.6,15.8,4.3c5.7,1.9,11.3,4.1,16.7,6.7c4.2,2.1,8.4,4.3,12.4,6.7c3.4,2,6.5,4.3,9.8,6.4
		c3.7,2.5,7.2,5.5,10.7,8.3c2.3,1.8,4.4,3.8,6.4,5.9c2.9,3.1,6,6.1,8.8,9.4c3.6,4.2,7,8.6,10.1,13.2c2.1,3.1,4.3,6.2,6,9.5
		c1.4,2.6,2.8,5.1,4.1,7.7c3.3,6.5,6.1,13.2,8.3,20.2c2.3,7.3,4.3,14.8,5.4,22.4c0.4,2.5,0.8,4.9,1,7.4c0.2,2.1,0.3,4.1,0.4,6.2
		c0.4,4.5,0.2,8.9,0.3,13.4c0,3.6-0.4,7.2-0.6,10.8c-0.6,9.1-2.5,17.9-5,26.7c-1.4,4.8-2.9,9.6-4.8,14.3c-2.4,5.7-5,11.4-8,16.8
		c-2,3.5-4.1,6.9-6.3,10.3c-1.9,2.9-4,5.7-6.1,8.5c-3.6,4.7-7.5,9.1-11.7,13.4c-2.5,2.6-5.2,5-7.9,7.5c-1.5,1.4-3.3,2.6-4.9,4
		c-3,2.6-6.3,4.9-9.6,7.1c-4.5,3-9,5.8-13.8,8.2c-3.4,1.7-6.7,3.4-10.2,4.9c-3,1.3-6,2.3-9.1,3.5c-2.5,1-5,1.8-7.5,2.5
		c-5.3,1.4-10.5,2.8-15.9,3.7c-4.3,0.8-8.7,1.4-13.1,1.7c-5.7,0.5-11.4,0.6-17.1,0.5c-4.1-0.1-8.2-0.5-12.4-1c-5-0.6-10-1.4-15-2.6
		c-4-0.9-8-1.8-11.9-3.1c-3.6-1.2-7.1-2.5-10.6-3.9c-4.6-1.8-8.9-3.9-13.3-6.1c-3.7-1.9-7.3-4.1-10.8-6.3
		c-5.2-3.2-10.1-6.9-14.8-10.8c-2.7-2.3-5.5-4.5-7.9-7.2c-0.7-0.8-1.5-1.4-2.3-2.1c0-0.1,0-0.2,0-0.4c2.2-1.8,3.9-4,5.8-6.1
		c3.7-4.2,7.2-8.5,10.4-13.2c2.2-3.3,4.5-6.6,6.5-10.1c1.9-3.4,3.9-6.8,5.5-10.3c2.3-5.1,4.6-10.1,6.4-15.4c2.4-7,4.5-14.1,5.7-21.5
		c0.7-4.2,1.3-8.4,1.9-12.7c1.8,1.5,3.6,3.1,5.6,4.2c4.3,2.4,8.8,3.9,13.7,4.4c9.5,0.9,17.9-1.7,25-8c1-0.9,2.1-1.7,2.9-2.8
		c1.1-1.5,2.2-3,3.2-4.6c1.7-2.6,2.8-5.5,3.6-8.5c-0.5-0.2-1-0.1-1.5-0.1c-4.9,0-9.7,0-14.6,0c-0.9,0-1.4,0.2-1.8,1
		c-1.5,2.5-3.6,4.3-6.1,5.7c-4.6,2.4-9.3,2.4-14,0.5c-2.8-1.1-5-3-6.7-5.4c-1.9-2.5-3-5.3-3.2-8.5c-0.3-5,1.6-9.1,5-12.6
		c1.4-1.4,3.1-2.3,5-3.1c5.3-2.2,10.4-1.7,15.3,1.2c2,1.2,3.5,3,4.7,5c0.4,0.7,0.9,0.9,1.7,0.9c5,0,10,0,15,0c0.3,0,0.7,0.1,1.1-0.2
		c-0.6-2.7-1.6-5.2-3-7.6c-3.9-6.9-9.8-11.6-17.1-14.5c-5.8-2.2-11.8-2.6-17.9-1.4c-5,1-9.5,3-13.5,6.1c-1.6,1.2-3,2.7-4.5,4.1
		c-0.1-0.6-0.2-1.1-0.3-1.7c-1.5-7.3-3.7-14.4-6.2-21.4c-1.4-4-3.3-7.9-5.1-11.8c-2.3-5.1-5.2-10-8.1-14.8c-1.3-2.1-2.7-4.2-4.1-6.2
		c-1-1.5-1.9-3-3.1-4.4c-2.2-2.6-4.2-5.4-6.5-8c-2.2-2.4-4.3-5-6.8-7.1C249.6,145.5,249.6,145.4,249.5,145.3z M463.4,269.5
		c0.3,0.8,0.2,1.5,0.2,2.2c0,1.1,0,1.2,1.2,1.2c3.6,0,7.2,0,10.9,0c1.9,0,1.8,0.3,1.8-1.8c0-19.3,0-38.6,0-57.9c0-0.2,0-0.5,0-0.7
		c0-1.1,0-1.1-1.1-1.1c-4,0-8.1,0-12.1,0c-0.1,0-0.3,0-0.4,0c-0.5,0-0.7,0.2-0.7,0.7c0,0.3,0,0.7,0,1c0,4.8,0,9.7,0,14.5
		c0,0.3,0.2,0.7-0.2,0.9c-0.5,0-0.8-0.5-1.2-0.6c-0.4-0.2-0.9-0.4-1.3-0.6c-7.3-3.7-14.5-2.8-21.2,1.3c-3.6,2.2-6.4,5.3-8.3,9.2
		c-2.2,4.5-3.2,9.2-2.8,14.2c0.4,4.3,1.9,8.2,4.2,11.7c2.2,3.2,4.9,6,8.4,7.8c6.7,3.5,13.3,3.5,19.9-0.2
		C461.6,270.7,462.4,270.1,463.4,269.5z M382.2,269.5c0,1,0,1.8,0,2.6c0,0.6,0.2,0.8,0.8,0.8c4.1,0,8.2,0,12.3,0
		c0.7,0,0.9-0.3,0.9-0.9c0-0.3,0-0.7,0-1c0-10,0-20.1,0-30.1c0-4.6,0-9.1,0-13.7c0-1.2,0-1.2-1.3-1.2c-3.2,0-6.5,0-9.7,0
		c-0.9,0-1.8,0-2.7,0c-0.5,0-0.7,0.2-0.7,0.7c0,0.6,0,1.2,0,1.7c-0.2,0.1-0.2,0.1-0.3,0.1c-0.8-0.4-1.6-0.8-2.4-1.2
		c-7.3-3.7-14.4-2.8-21.1,1.1c-4.8,2.8-8,7.2-9.9,12.4c-2.3,6.4-2.2,12.8,0.8,19.1c3,6.4,7.8,11.1,14.7,13.2
		c4.4,1.3,8.8,1.1,13.1-0.6C378.5,271.6,380.2,270.5,382.2,269.5z M415,232.1c-0.3-0.3-0.2-0.5-0.2-0.8c0-1.4,0-2.8,0-4.2
		c0-1.1,0-1.1-1.1-1.1c-2.8,0-5.6,0-8.3,0c-1,0-2.1,0-3.1,0c-0.8,0-1,0.3-0.9,1c0,0.3,0,0.6,0,0.8c0,5.1,0,10.3,0,15.4
		c0,9.5,0,18.9,0,28.4c0,1.2,0,1.3,1.2,1.3c4,0,8,0,12,0c1.2,0,1.2,0,1.3-1.2c0-0.3,0-0.6,0-0.8c0-7.9,0-15.8,0-23.7
		c0-0.9,0.1-1.9,0.3-2.8c0.5-2.3,2-3.7,4.2-4.4c2.2-0.8,4.6-1.1,6.9-0.9c1,0.1,1,0,1-1c0-3.7,0-7.4,0-11.2c0-1,0-1.1-1-1
		c-3.9,0.1-7.4,1.2-10.2,4.1C416.3,230.6,415.7,231.3,415,232.1z M485.2,271c-0.5-0.7-0.8-1.4-1.1-2.1c-0.3-0.7-0.8-0.5-1.3-0.5
		c-0.6,0.1-0.4,0.5-0.4,0.9c0,1,0,2,0,3c0,0.4,0.1,0.6,0.6,0.6c0.4,0,0.6-0.1,0.6-0.6c0-0.4,0-0.9,0.1-1.3c0.5,0.1,0.5,0.4,0.6,0.7
		c0.1,0.3,0.2,0.5,0.3,0.8c0.4,0.6,0.9,0.6,1.3,0c0.3-0.5,0.3-1.1,0.8-1.4c0.2,0.5,0.1,0.9,0.1,1.3c0,0.4,0.2,0.6,0.6,0.6
		c0.4,0,0.4-0.3,0.4-0.6c0-1.1,0-2.2,0-3.2c0-0.6-0.3-0.7-0.8-0.7c-0.5,0-0.7,0.3-0.9,0.7C485.9,269.8,485.7,270.5,485.2,271z
		 M480.3,268.4c-0.3,0-0.6,0-0.8,0c-0.3,0-0.6,0-0.7,0.3c-0.1,0.4,0,0.7,0.4,0.7c0.5,0.1,0.4,0.4,0.4,0.7c0,0.7,0,1.4,0,2.1
		c0,0.4,0.2,0.6,0.6,0.6c0.5,0,0.5-0.3,0.5-0.6c0-0.7,0-1.3,0-2c0-0.3-0.1-0.6,0.2-0.7c0.4-0.1,0.9-0.2,0.7-0.8
		c-0.2-0.5-0.7-0.2-1.1-0.3C480.5,268.4,480.4,268.4,480.3,268.4z"
    />
	<path
      class="st1"
      d="M249.5,145.3c0,0.1,0,0.2,0,0.4c-0.7,0.2-1.2,0.8-1.6,1.3c-0.2,0.3-0.4,0.6-0.7,0.9c-2.7,2.6-5.1,5.5-7.5,8.4
		c-3.2,3.8-6.1,8-8.9,12.1c-2.1,3.1-3.9,6.4-5.8,9.7c-2.2,3.6-3.8,7.6-5.7,11.4c-0.5,1.1-1,2.1-1.4,3.2c-2.3,5.6-4.2,11.3-6,17
		c-0.9,2.9-1.7,5.9-2.2,8.9c-0.8,4.3-1.5,8.7-2.2,13c-0.2,1.4-0.6,2.8-0.3,4.2c-1.9,3.2-3.5,6.4-4,10.1c-0.4,3.8-0.3,7.6,0.9,11.3
		c0.7,2,1.7,3.9,2.7,5.7c0.2,2.2,0.4,4.5,0.7,6.7c0.5,3.9,1.2,7.8,1.9,11.7c1.4,7.3,3.8,14.3,6.3,21.2c1.8,5.2,4.3,10,6.6,15
		c1.8,3.9,4.1,7.5,6.3,11.2c2.1,3.4,4.3,6.7,6.8,9.9c2.6,3.4,5.2,6.8,8.1,9.9c0.7,0.7,1.5,1.3,2,2.1c0.8,1.1,1.8,1.9,2.6,3
		c0.3,0.4,0.7,0.8,1.2,0.9c0,0.1,0,0.2,0,0.4c-2.3,1.9-4.3,4.2-6.6,6.1c-4,3.5-8.1,6.8-12.5,9.9c-4.7,3.4-9.6,6.5-14.7,9.2
		c-4.2,2.2-8.4,4.5-12.8,6.2c-5.3,2.1-10.6,4.3-16.2,5.8c-6.3,1.7-12.7,3.2-19.1,4.2c-8.7,1.3-17.4,1.8-26.2,1.6
		c-5.4-0.2-10.7-0.7-16-1.5c-5.8-0.9-11.5-2.2-17.2-3.6c-5.7-1.4-11.1-3.5-16.5-5.6c-3.3-1.3-6.6-2.8-9.8-4.4
		c-5-2.5-9.8-5.2-14.4-8.3c-3.9-2.5-7.7-5.2-11.4-8.1c-3.7-2.9-7.2-6-10.6-9.3c-2.9-2.7-5.5-5.6-8.2-8.5c-2.2-2.4-4.2-4.8-6.1-7.4
		c-3.5-4.6-6.8-9.4-9.8-14.3c-2.4-4-4.6-8.2-6.7-12.4c-3.4-6.8-6.2-13.9-8.3-21.2c-2.1-7.1-3.8-14.3-4.8-21.6c-0.7-5-1.2-10-1.4-15
		c-0.2-3.9-0.3-7.8-0.1-11.7c0.5-12.1,2.4-24,5.7-35.7c1.7-5.9,3.8-11.6,6.1-17.3c1.8-4.4,4-8.6,6.2-12.8c1.7-3.4,3.8-6.6,5.8-9.8
		c2-3.2,4.3-6.2,6.5-9.2c2.8-3.8,5.8-7.4,9-10.8c2.8-3,5.6-6.1,8.8-8.7c1.4-1.2,2.6-2.5,4.1-3.7c4.6-3.8,9.4-7.4,14.3-10.7
		c4.4-2.9,9-5.7,13.7-8c4.2-2.1,8.5-4.3,13-5.9c6.5-2.3,13-4.7,19.8-6.2c4.4-0.9,8.7-1.8,13.2-2.4c4.4-0.6,8.9-1,13.3-1.2
		c6-0.3,11.9-0.2,17.9,0.3c6.4,0.5,12.8,1.5,19.1,2.8c7.1,1.4,13.9,3.6,20.7,6c4.5,1.6,8.7,3.7,13.1,5.7c4.1,1.9,7.9,4.3,11.8,6.5
		c2.7,1.6,5.2,3.5,7.9,5.2c3.5,2.3,6.7,5,9.9,7.6c3.1,2.5,5.9,5.2,8.7,8C249,144.8,249.3,145,249.5,145.3z M50.7,250
		c-0.4-0.2-0.4-0.5-0.5-0.7c-0.5-1.6-0.9-3.3-1.4-4.9c-2-6.5-4.3-12.9-6.3-19.4c-1.3-4.2-2.9-8.3-4.3-12.4c-0.3-0.8-0.6-1.1-1.5-1.1
		c-6.2,0-12.3,0-18.5,0c-0.2,0-0.5,0-0.7,0c-0.5,0-0.7,0.2-0.6,0.7c0,0.3,0,0.7,0,1c0,8.9,0,17.7,0,26.6c0,10.6,0,21.2,0,31.8
		c0,1.3,0,1.3,1.3,1.3c4,0,7.9,0,11.9,0c1.1,0,1.1,0,1.1-1.2c0-11.6,0.1-23.2-0.3-34.7c0-1.3,0-2.7,0-4.1c0.5,0.7,0.7,1.5,0.9,2.2
		c1.6,5.5,3.6,10.9,5.2,16.4c0.8,2.7,1.9,5.3,2.8,8c1.4,4.1,2.8,8.2,4.2,12.3c0.4,1.3,0.1,1.1,1.5,1.1c3.1,0,6.1,0,9.2,0
		c1.2,0,1.2,0,1.6-1.1c1.9-5.5,3.9-10.9,5.7-16.4c1.2-3.6,2.5-7.2,3.7-10.8c1.2-3.7,2.3-7.4,3.5-11.2c0.1-0.3,0.1-0.7,0.4-0.8
		c0,1.4,0,2.9,0,4.3c-0.3,11.6-0.1,23.3-0.1,34.9c0,1.1,0,1.1,1.1,1.1c4.3,0,8.6,0,12.9,0c0.1,0,0.2,0,0.3,0c0.5,0,0.8-0.1,0.8-0.7
		c0-0.3,0-0.7,0-1c0-6.5,0-13.1,0-19.6c0-12.9,0-25.8,0-38.7c0-1.3,0-1.3-1.3-1.3c-6.3,0-12.6,0-18.9,0c-1.2,0-1.2,0-1.5,1.2
		c-0.5,1.7-1,3.3-1.6,5c-2.1,6.3-4.4,12.6-6.3,19C53.6,241.1,52.2,245.5,50.7,250z M122.9,228.7c-0.4-0.2-0.6-0.3-0.7-0.4
		c-4.3-2.5-8.8-3.8-13.7-3.2c-3.4,0.4-6.5,1.5-9.4,3.3c-3,1.9-5.5,4.3-7.4,7.4c-3.1,5.2-4.7,10.7-3.8,16.7
		c1.2,8.2,5.2,14.6,12.4,18.7c6.7,3.8,13.6,3.7,20.4-0.2c0.8-0.5,1.6-0.9,2.6-1.5c0,0.9,0,1.6,0,2.4c0,1,0,1,1,1.1c4,0,8,0,12,0
		c1,0,1,0,1-1.1c0-0.2,0-0.5,0-0.7c0-14.5,0-28.9,0-43.4c0-0.3,0-0.6,0-0.8c0.1-0.8-0.2-1-1-0.9c-2.4,0-4.8,0-7.2,0
		c-1.8,0-3.6,0-5.4,0c-0.6,0-0.9,0.2-0.8,0.8C123,227.3,122.9,227.9,122.9,228.7z M139.8,258.7c0.4,3.4,1.3,6.3,3.5,8.8
		c1.9,2.1,4.2,3.7,6.7,4.7c4.2,1.7,8.6,2,13,1.3c3.8-0.6,7.3-2.1,10.2-4.8c2.4-2.2,4.2-4.8,4.7-8.2c0.9-6.6-1.3-11.1-7.3-14.3
		c-2.1-1.1-4.5-1.7-6.8-2.2c-1.7-0.4-3.4-0.9-5.1-1.5c-0.5-0.2-1-0.5-1.5-0.8c-1.7-1.2-2-3.7-0.7-5.2c1.3-1.6,3.6-1.7,5.1-0.2
		c0.7,0.7,1.1,1.6,1.2,2.5c0.1,0.8,0.4,1,1.1,1c3.9,0,7.8,0,11.7,0c1,0,1.1-0.1,1-1c-0.2-3-1.4-5.6-3.2-8c-1-1.2-2-2.3-3.3-3
		c-4-2.3-8.3-3-12.9-2.6c-3.1,0.3-6.1,1.3-8.8,2.8c-2.1,1.2-3.8,3-5.2,5.1c-0.6,1-1.3,2-1.5,3.2c-0.2,1.3-0.5,2.6-0.5,3.9
		c0,2.1,0.1,4.1,1,6.1c1.4,2.9,3.6,5,6.5,6.3c2.9,1.3,6,2.1,9.2,2.8c1,0.2,2,0.5,2.9,1.1c1.7,1,2.4,2.6,1.8,4.3
		c-0.6,1.8-2.2,2.8-4.2,2.6c-2-0.2-3.3-1.3-3.9-3.4c-0.4-1.2-0.4-1.3-1.7-1.3c-3.9,0-7.8,0-11.7,0
		C140.8,258.7,140.4,258.7,139.8,258.7z M181.9,254.7C181.9,254.7,181.9,254.7,181.9,254.7c0,5.6,0,11.3,0,16.9c0,1.2,0,1.2,1.2,1.2
		c4,0,7.9,0,11.9,0c1.6,0,1.5,0.2,1.5-1.5c0-10.9,0-21.8,0-32.8c0-0.3,0-0.7,0-1c-0.1-0.6,0.2-0.8,0.8-0.8c1.6,0,3.1,0,4.7,0
		c0.5,0,0.8-0.2,0.7-0.7c0-3.2,0-6.3,0-9.5c0-0.7-0.3-0.8-0.9-0.8c-1.3,0-2.5,0-3.8,0c-1.5,0-1.5,0-1.5-1.6c0-3.9,0-7.8,0-11.7
		c0-1.1,0-1.1-1.1-1.1c-4,0-8.1,0-12.1,0c-1.2,0-1.2,0-1.2,1.2c0,0.2,0,0.5,0,0.7c0,3.2,0,6.4,0,9.6c0,0.9,0.4,2-0.2,2.6
		c-0.6,0.5-1.7,0.1-2.6,0.2c-0.6,0-1.1,0-1.7,0c-0.6,0-0.8,0.2-0.8,0.8c0,3.1,0,6.2,0,9.3c0,0.6,0.3,0.8,0.8,0.8c1.2,0,2.4,0,3.5,0
		c0.5,0,0.8,0.2,0.8,0.7c0,0.3,0,0.7,0,1C181.9,243.8,181.9,249.3,181.9,254.7z"
    />
	<path
      class="st2"
      d="M249.6,354.4c-0.5-0.1-1-0.5-1.2-0.9c-0.7-1.1-1.8-1.9-2.6-3c-0.6-0.8-1.4-1.4-2-2.1c-2.9-3.2-5.5-6.6-8.1-9.9
		c-2.4-3.2-4.7-6.5-6.8-9.9c-2.2-3.7-4.5-7.3-6.3-11.2c-2.3-4.9-4.8-9.8-6.6-15c-2.4-7-4.9-13.9-6.3-21.2c-0.7-3.9-1.4-7.7-1.9-11.7
		c-0.3-2.2-0.5-4.5-0.7-6.7c0.7,0.8,1.4,1.6,2.1,2.5c2.1,2.8,4.9,4.6,8,6.1c2.9,1.3,5.9,2.1,9.1,2.4c5.7,0.5,10.9-0.8,15.6-3.9
		c3.8-2.5,6.6-5.8,8.6-9.9c0.2-0.5,0.6-0.9,0.5-1.6c-4.7,0-9.4,0-14,0c-0.5,0-0.8,0.2-1.1,0.5c-0.7,0.6-1.4,1.2-2.3,1.6
		c-4.6,2-10.4,1.4-14.5-2.9c-0.9-0.9-1.6-2.1-2-3.5c0.6,0,1.2,0,1.7,0c10.7,0,21.5,0,32.2,0c0.4,0,0.8,0,1.1,0
		c0.4,0,0.6-0.1,0.7-0.5c0-0.3,0.1-0.6,0.2-1c0.4-4.8-0.1-9.5-2.4-13.8c-2.7-5.1-6.6-9.1-12-11.5c-4-1.8-8.2-2.6-12.5-2.2
		c-3.8,0.3-7.3,1.5-10.7,3.4c-3.2,1.8-5.6,4.4-7.8,7.2c-0.3-1.4,0.1-2.8,0.3-4.2c0.6-4.4,1.4-8.7,2.2-13c0.5-3,1.4-6,2.2-8.9
		c1.7-5.8,3.6-11.5,6-17c0.5-1.1,0.9-2.2,1.4-3.2c1.9-3.8,3.5-7.7,5.7-11.4c2-3.2,3.7-6.6,5.8-9.7c2.8-4.1,5.7-8.3,8.9-12.1
		c2.4-2.9,4.8-5.8,7.5-8.4c0.3-0.3,0.5-0.6,0.7-0.9c0.5-0.5,0.9-1.1,1.6-1.3c2.5,2.2,4.6,4.7,6.8,7.1c2.3,2.5,4.3,5.4,6.5,8
		c1.2,1.4,2.1,2.9,3.1,4.4c1.4,2.1,2.9,4.1,4.1,6.2c2.9,4.8,5.8,9.7,8.1,14.8c1.8,3.9,3.6,7.7,5.1,11.8c2.4,7,4.7,14.1,6.2,21.4
		c0.1,0.6,0.2,1.1,0.3,1.7c-0.1,0.2-0.1,0.4-0.3,0.5c-2.8,3.3-5,7-6.2,11.2c-1.6,5.7-2,11.5-0.6,17.3c0.8,3.2,1.9,6.3,3.9,9
		c1.6,2.2,3.2,4.4,5.2,6.3c-0.6,4.2-1.2,8.4-1.9,12.7c-1.2,7.4-3.4,14.4-5.7,21.5c-1.8,5.3-4.1,10.3-6.4,15.4
		c-1.6,3.6-3.6,6.9-5.5,10.3c-1.9,3.5-4.2,6.8-6.5,10.1c-3.1,4.6-6.6,9-10.4,13.2C253.5,350.3,251.8,352.6,249.6,354.4z
		 M268.1,232.2c-0.3-0.4-0.2-0.7-0.2-0.9c0-1.4,0-2.8,0-4.2c0-1,0-1-1-1c-1,0-2.1,0-3.1,0c-2.7,0-5.5,0-8.2,0c-1.1,0-1.1,0-1.1,1.2
		c0,0.1,0,0.3,0,0.4c0,10.5,0,20.9,0,31.4c0,4.2,0,8.5,0,12.7c0,1.1,0,1.1,1.2,1.1c4.1,0,8.1,0,12.2,0c1.1,0,1.1,0,1.1-1.1
		c0-0.3,0-0.6,0-0.8c0-7.7,0-15.4,0-23.2c0-1.1,0.1-2.2,0.3-3.2c0.4-2.2,1.7-3.8,3.8-4.6c2.3-0.9,4.8-1.3,7.3-1c1,0.1,1,0,1-1
		c0-3.3,0-6.6,0-9.9c0-2.4,0-2.4-2.4-2.2c-3.6,0.3-6.6,1.6-9,4.3C269.2,230.9,268.7,231.5,268.1,232.2z"
    />
	<path
      class="st3"
      d="M291.7,265.2c-2-1.9-3.6-4.1-5.2-6.3c-2-2.7-3.1-5.8-3.9-9c-1.4-5.8-1.1-11.5,0.6-17.3
		c1.2-4.2,3.4-7.9,6.2-11.2c0.1-0.1,0.2-0.3,0.3-0.5c1.5-1.4,2.9-2.9,4.5-4.1c4-3.1,8.5-5.2,13.5-6.1c6.1-1.2,12.1-0.8,17.9,1.4
		c7.3,2.8,13.2,7.5,17.1,14.5c1.4,2.4,2.4,4.9,3,7.6c-0.3,0.3-0.7,0.2-1.1,0.2c-5,0-10,0-15,0c-0.8,0-1.3-0.2-1.7-0.9
		c-1.2-2-2.6-3.8-4.7-5c-4.9-2.9-10-3.3-15.3-1.2c-1.9,0.8-3.6,1.7-5,3.1c-3.5,3.5-5.3,7.6-5,12.6c0.2,3.1,1.3,6,3.2,8.5
		c1.8,2.4,4,4.3,6.7,5.4c4.7,1.9,9.4,1.9,14-0.5c2.5-1.4,4.7-3.2,6.1-5.7c0.4-0.7,1-1,1.8-1c4.9,0,9.7,0,14.6,0
		c0.5,0,0.9-0.1,1.5,0.1c-0.8,3-1.8,5.9-3.6,8.5c-1,1.6-2.1,3.1-3.2,4.6c-0.8,1.1-1.9,1.9-2.9,2.8c-7.1,6.4-15.5,8.9-25,8
		c-4.9-0.5-9.5-2-13.7-4.4C295.3,268.3,293.5,266.7,291.7,265.2z"
    />
	<path
      class="st3"
      d="M463.4,269.5c-1,0.6-1.8,1.2-2.7,1.7c-6.6,3.7-13.3,3.7-19.9,0.2c-3.5-1.8-6.2-4.6-8.4-7.8
		c-2.4-3.5-3.8-7.4-4.2-11.7c-0.5-5,0.5-9.7,2.8-14.2c1.9-3.9,4.7-7,8.3-9.2c6.8-4.1,13.9-5,21.2-1.3c0.4,0.2,0.9,0.4,1.3,0.6
		c0.4,0.2,0.7,0.7,1.2,0.6c0.3-0.3,0.2-0.6,0.2-0.9c0-4.8,0-9.7,0-14.5c0-0.3,0-0.7,0-1c0-0.5,0.2-0.7,0.7-0.7c0.1,0,0.3,0,0.4,0
		c4,0,8.1,0,12.1,0c1.1,0,1.1,0,1.1,1.1c0,0.2,0,0.5,0,0.7c0,19.3,0,38.6,0,57.9c0,2.1,0.1,1.8-1.8,1.8c-3.6,0-7.2,0-10.9,0
		c-1.2,0-1.2,0-1.2-1.2C463.6,271,463.7,270.3,463.4,269.5z M453.1,260c6.1-0.1,10.6-4.4,10.6-10.5c0-6-4.1-10.6-10.6-10.6
		c-6.6,0-10.9,4.5-10.8,10.6C442.4,255.7,446.6,259.8,453.1,260z"
    />
	<path
      class="st3"
      d="M382.2,269.5c-2,1.1-3.7,2.2-5.5,3c-4.3,1.8-8.7,1.9-13.1,0.6c-6.9-2.1-11.6-6.7-14.7-13.2
		c-2.9-6.2-3.1-12.6-0.8-19.1c1.9-5.2,5.1-9.6,9.9-12.4c6.8-3.9,13.9-4.8,21.1-1.1c0.8,0.4,1.6,0.8,2.4,1.2c0,0,0.1,0,0.3-0.1
		c0-0.5,0-1.1,0-1.7c0-0.5,0.2-0.7,0.7-0.7c0.9,0,1.8,0,2.7,0c3.2,0,6.5,0,9.7,0c1.2,0,1.3,0,1.3,1.2c0,4.6,0,9.1,0,13.7
		c0,10,0,20.1,0,30.1c0,0.3,0,0.7,0,1c0,0.6-0.2,0.9-0.9,0.9c-4.1,0-8.2,0-12.3,0c-0.6,0-0.8-0.2-0.8-0.8
		C382.2,271.3,382.2,270.5,382.2,269.5z M360.9,249.6c0,5.6,4.7,10.5,10.9,10.4c5.4,0,10.7-4.2,10.7-10.6c-0.1-6-5-10.6-10.9-10.5
		C364.9,239,360.9,244.2,360.9,249.6z"
    />
	<path
      class="st3"
      d="M415,232.1c0.7-0.8,1.3-1.5,2-2.2c2.7-2.9,6.2-4,10.2-4.1c1,0,1,0,1,1c0,3.7,0,7.4,0,11.2c0,1,0,1-1,1
		c-2.4-0.2-4.7,0.1-6.9,0.9c-2.1,0.7-3.6,2.1-4.2,4.4c-0.2,0.9-0.3,1.9-0.3,2.8c0,7.9,0,15.8,0,23.7c0,0.3,0,0.6,0,0.8
		c0,1.2,0,1.2-1.3,1.2c-4,0-8,0-12,0c-1.2,0-1.2,0-1.2-1.3c0-9.5,0-18.9,0-28.4c0-5.1,0-10.3,0-15.4c0-0.3,0-0.6,0-0.8
		c-0.1-0.7,0.2-1,0.9-1c1,0.1,2.1,0,3.1,0c2.8,0,5.6,0,8.3,0c1.1,0,1.1,0,1.1,1.1c0,1.4,0,2.8,0,4.2
		C414.8,231.6,414.8,231.8,415,232.1z"
    />
	<path
      class="st3"
      d="M485.2,271c0.6-0.6,0.7-1.2,1-1.9c0.2-0.4,0.3-0.7,0.9-0.7c0.5,0,0.8,0.1,0.8,0.7c0,1.1,0,2.2,0,3.2
		c0,0.3-0.1,0.5-0.4,0.6c-0.4,0-0.6-0.2-0.6-0.6c0-0.4,0.1-0.8-0.1-1.3c-0.5,0.4-0.5,1-0.8,1.4c-0.4,0.6-0.9,0.6-1.3,0
		c-0.1-0.2-0.2-0.5-0.3-0.8c-0.1-0.2-0.1-0.6-0.6-0.7c0,0.4-0.1,0.9-0.1,1.3c0,0.4-0.2,0.5-0.6,0.6c-0.5,0-0.6-0.2-0.6-0.6
		c0-1,0-2,0-3c0-0.3-0.2-0.8,0.4-0.9c0.5,0,1-0.2,1.3,0.5C484.4,269.6,484.7,270.4,485.2,271z"
    />
	<path
      class="st3"
      d="M480.3,268.4c0.1,0,0.2,0,0.3,0c0.4,0.1,0.9-0.2,1.1,0.3c0.2,0.6-0.2,0.7-0.7,0.8c-0.3,0.1-0.2,0.5-0.2,0.7
		c0,0.7,0,1.3,0,2c0,0.4-0.1,0.6-0.5,0.6c-0.4,0-0.6-0.2-0.6-0.6c0-0.7,0-1.4,0-2.1c0-0.3,0-0.7-0.4-0.7c-0.4-0.1-0.5-0.4-0.4-0.7
		c0.1-0.4,0.4-0.3,0.7-0.3C479.7,268.4,480,268.4,480.3,268.4z"
    />
	<path
      class="st3"
      d="M50.7,250c1.4-4.5,2.9-8.9,4.2-13.4c1.9-6.4,4.2-12.7,6.3-19c0.5-1.7,1-3.3,1.6-5c0.4-1.1,0.4-1.2,1.5-1.2
		c6.3,0,12.6,0,18.9,0c1.2,0,1.3,0,1.3,1.3c0,12.9,0,25.8,0,38.7c0,6.5,0,13.1,0,19.6c0,0.3,0,0.7,0,1c0,0.6-0.3,0.8-0.8,0.7
		c-0.1,0-0.2,0-0.3,0c-4.3,0-8.6,0-12.9,0c-1.1,0-1.1,0-1.1-1.1c0-11.6-0.1-23.3,0.1-34.9c0-1.5,0-2.9,0-4.3
		c-0.3,0.1-0.3,0.5-0.4,0.8c-1.2,3.7-2.3,7.5-3.5,11.2c-1.2,3.6-2.5,7.2-3.7,10.8c-1.8,5.5-3.8,10.9-5.7,16.4
		c-0.4,1.1-0.4,1.1-1.6,1.1c-3.1,0-6.1,0-9.2,0c-1.4,0-1.1,0.1-1.5-1.1c-1.4-4.1-2.8-8.2-4.2-12.3c-0.9-2.7-2-5.3-2.8-8
		c-1.6-5.5-3.6-10.9-5.2-16.4c-0.2-0.7-0.4-1.5-0.9-2.2c0,1.4,0,2.8,0,4.1c0.4,11.6,0.3,23.2,0.3,34.7c0,1.2,0,1.2-1.1,1.2
		c-4,0-7.9,0-11.9,0c-1.3,0-1.3,0-1.3-1.3c0-10.6,0-21.2,0-31.8c0-8.9,0-17.7,0-26.6c0-0.3,0-0.7,0-1c0-0.5,0.1-0.7,0.6-0.7
		c0.2,0,0.5,0,0.7,0c6.2,0,12.3,0,18.5,0c0.9,0,1.2,0.3,1.5,1.1c1.4,4.1,3,8.2,4.3,12.4c2,6.5,4.3,12.9,6.3,19.4
		c0.5,1.6,1,3.2,1.4,4.9C50.4,249.5,50.4,249.8,50.7,250z"
    />
	<path
      class="st3"
      d="M122.9,228.7c0-0.8,0-1.3,0-1.9c0-0.6,0.2-0.8,0.8-0.8c1.8,0,3.6,0,5.4,0c2.4,0,4.8,0,7.2,0
		c0.7,0,1.1,0.2,1,0.9c0,0.3,0,0.6,0,0.8c0,14.5,0,28.9,0,43.4c0,0.2,0,0.5,0,0.7c0,1,0,1.1-1,1.1c-4,0-8,0-12,0c-1,0-1,0-1-1.1
		c0-0.7,0-1.5,0-2.4c-1,0.6-1.8,1-2.6,1.5c-6.8,3.9-13.7,4.1-20.4,0.2c-7.2-4.1-11.3-10.5-12.4-18.7c-0.9-6,0.7-11.5,3.8-16.7
		c1.9-3.1,4.4-5.5,7.4-7.4c2.8-1.8,6-2.9,9.4-3.3c5-0.6,9.5,0.7,13.7,3.2C122.4,228.3,122.5,228.4,122.9,228.7z M102,249.4
		c0.1,6.1,4.7,10.6,10.9,10.6c5.8,0,10.6-4.2,10.7-10.4c0.1-6.1-4.7-10.8-10.8-10.7C106.2,238.9,102.1,243.9,102,249.4z"
    />
	<path
      class="st3"
      d="M207.2,235.8c2.2-2.8,4.7-5.4,7.8-7.2c3.3-1.9,6.9-3.1,10.7-3.4c4.4-0.4,8.5,0.4,12.5,2.2
		c5.4,2.4,9.2,6.3,12,11.5c2.3,4.4,2.9,9,2.4,13.8c0,0.3-0.1,0.6-0.2,1c0,0.4-0.3,0.5-0.7,0.5c-0.4,0-0.8,0-1.1,0
		c-10.7,0-21.5,0-32.2,0c-0.5,0-1,0-1.7,0c0.5,1.4,1.2,2.5,2,3.5c4.1,4.4,9.9,4.9,14.5,2.9c0.9-0.4,1.6-1,2.3-1.6
		c0.3-0.3,0.6-0.5,1.1-0.5c4.7,0,9.3,0,14,0c0.1,0.6-0.3,1.1-0.5,1.6c-1.9,4.1-4.8,7.4-8.6,9.9c-4.7,3.1-9.9,4.4-15.6,3.9
		c-3.2-0.3-6.2-1-9.1-2.4c-3.1-1.4-5.9-3.3-8-6.1c-0.6-0.9-1.4-1.7-2.1-2.5c-1-1.8-2.1-3.7-2.7-5.7c-1.2-3.7-1.4-7.4-0.9-11.3
		C203.7,242.1,205.3,238.9,207.2,235.8z M238.4,243.8c-0.8-3-5.1-5.9-9.4-6.2c-4.7-0.4-10.4,2.9-11.4,6.2
		C224.6,243.8,231.5,243.8,238.4,243.8z"
    />
	<path
      class="st3"
      d="M139.8,258.7c0.6,0,1,0,1.3,0c3.9,0,7.8,0,11.7,0c1.3,0,1.3,0,1.7,1.3c0.6,2,1.9,3.2,3.9,3.4
		c1.9,0.2,3.6-0.8,4.2-2.6c0.6-1.7-0.1-3.3-1.8-4.3c-0.9-0.5-1.9-0.8-2.9-1.1c-3.1-0.8-6.2-1.5-9.2-2.8c-3-1.3-5.2-3.4-6.5-6.3
		c-0.9-1.9-1-4-1-6.1c0-1.3,0.3-2.6,0.5-3.9c0.2-1.2,0.9-2.2,1.5-3.2c1.3-2.1,3-3.9,5.2-5.1c2.7-1.5,5.6-2.6,8.8-2.8
		c4.6-0.4,8.9,0.3,12.9,2.6c1.3,0.8,2.3,1.9,3.3,3c1.9,2.3,3,5,3.2,8c0.1,1,0.1,1-1,1c-3.9,0-7.8,0-11.7,0c-0.8,0-1.1-0.2-1.1-1
		c-0.1-0.9-0.4-1.8-1.2-2.5c-1.5-1.5-3.8-1.4-5.1,0.2c-1.3,1.6-1,4,0.7,5.2c0.5,0.3,1,0.6,1.5,0.8c1.7,0.6,3.4,1.2,5.1,1.5
		c2.4,0.5,4.7,1.1,6.8,2.2c6,3.2,8.3,7.7,7.3,14.3c-0.5,3.3-2.3,6-4.7,8.2c-2.9,2.7-6.3,4.1-10.2,4.8c-4.5,0.8-8.8,0.4-13-1.3
		c-2.6-1.1-4.9-2.6-6.7-4.7C141.1,265.1,140.2,262.1,139.8,258.7z"
    />
	<path
      class="st3"
      d="M181.9,254.7c0-5.4,0-10.9,0-16.3c0-0.3,0-0.7,0-1c0-0.5-0.2-0.7-0.8-0.7c-1.2,0-2.4,0-3.5,0
		c-0.6,0-0.8-0.2-0.8-0.8c0-3.1,0-6.2,0-9.3c0-0.6,0.2-0.9,0.8-0.8c0.6,0,1.1,0,1.7,0c0.9,0,2,0.4,2.6-0.2c0.6-0.6,0.2-1.7,0.2-2.6
		c0-3.2,0-6.4,0-9.6c0-0.2,0-0.5,0-0.7c0-1.2,0-1.2,1.2-1.2c4,0,8.1,0,12.1,0c1,0,1.1,0,1.1,1.1c0,3.9,0,7.8,0,11.7
		c0,1.6,0,1.6,1.5,1.6c1.3,0,2.5,0,3.8,0c0.6,0,0.9,0.1,0.9,0.8c0,3.2,0,6.3,0,9.5c0,0.6-0.2,0.7-0.7,0.7c-1.6,0-3.1,0-4.7,0
		c-0.6,0-0.9,0.2-0.8,0.8c0,0.3,0,0.7,0,1c0,10.9,0,21.8,0,32.8c0,1.8,0.1,1.5-1.5,1.5c-4,0-7.9,0-11.9,0c-1.2,0-1.2,0-1.2-1.2
		C181.9,266,181.9,260.4,181.9,254.7C181.9,254.7,181.9,254.7,181.9,254.7z"
    />
	<path
      class="st3"
      d="M268.1,232.2c0.6-0.7,1.2-1.3,1.7-2c2.4-2.7,5.5-4,9-4.3c2.4-0.2,2.4-0.2,2.4,2.2c0,3.3,0,6.6,0,9.9
		c0,1,0,1-1,1c-2.5-0.3-5,0.2-7.3,1c-2.1,0.8-3.4,2.3-3.8,4.6c-0.2,1.1-0.3,2.1-0.3,3.2c0,7.7,0,15.4,0,23.2c0,0.3,0,0.6,0,0.8
		c0,1.1,0,1.1-1.1,1.1c-4.1,0-8.1,0-12.2,0c-1.2,0-1.2,0-1.2-1.1c0-4.2,0-8.5,0-12.7c0-10.5,0-20.9,0-31.4c0-0.1,0-0.3,0-0.4
		c0-1.2,0-1.2,1.1-1.2c2.7,0,5.5,0,8.2,0c1,0,2.1,0,3.1,0c1,0,1,0,1,1c0,1.4,0,2.8,0,4.2C267.9,231.5,267.8,231.8,268.1,232.2z"
    />
	<path
      class="st0"
      d="M453.1,260c-6.6-0.3-10.7-4.3-10.8-10.5c-0.1-6,4.2-10.6,10.8-10.6c6.5,0,10.6,4.6,10.6,10.6
		C463.8,255.6,459.3,259.9,453.1,260z"
    />
	<path
      class="st0"
      d="M360.9,249.6c0-5.3,4-10.6,10.6-10.7c5.9-0.1,10.9,4.5,10.9,10.5c0.1,6.5-5.3,10.6-10.7,10.6
		C365.6,260,360.9,255.1,360.9,249.6z"
    />
	<path
      class="st1"
      d="M102,249.4c0.1-5.5,4.2-10.5,10.8-10.6c6.1,0,10.9,4.6,10.8,10.7c-0.1,6.2-4.9,10.4-10.7,10.4
		C106.7,260,102.1,255.5,102,249.4z"
    />
	<path
      class="st2"
      d="M238.4,243.8c-6.9,0-13.9,0-20.8,0c1-3.4,6.7-6.6,11.4-6.2C233.3,237.9,237.6,240.8,238.4,243.8z"
    />
</g>
</svg>
