<?xml version="1.0" encoding="utf-8"?>
<!-- Generator: Adobe Illustrator 22.1.0, SVG Export Plug-In . SVG Version: 6.00 Build 0)  -->
<svg version="1.1" xmlns="http://www.w3.org/2000/svg" xmlns:xlink="http://www.w3.org/1999/xlink" x="0px" y="0px"
	 viewBox="0 0 1584 140" style="enable-background:new 0 0 1584 140;" xml:space="preserve">
<style type="text/css">
	.st0{fill:none;stroke:#000000;}
	.st1{fill:none;stroke:#000000;stroke-width:0.1576;}
	.st2{fill:none;stroke:#000000;stroke-width:0.25;}
	.st3{fill:none;stroke:#000000;stroke-width:1.3975;}
	.st4{fill:#002D56;}
</style>
<g id="Specs">
</g>
<g id="Logos">
	<g>
		<g>
			<g>
				<path class="st4" d="M202.9,71.6c9.2-20.3-3.4-28.2-33.4-28.2l-50.1,0c-10.9,0-13.2-0.9-10.8-6.1l3.6-7.8
					c2.2-5.1,5.4-6,16.3-6.1l65.7,0c13.6,0,19.3,1.8,26.6,4.6l6.5-27.7l-131,0c-25,0-44.4,11.3-54.3,33.2L27.9,64.7
					C17.1,88,24.9,94.9,53,94.9l57.6,0c11,0,12.8,1.1,10.5,6.1l-4.4,9.6c-2.3,5.2-5.1,6-16.1,6.1H32.3c-14.1,0-19.6-2.6-25.3-5.2
					L0,140l127.5,0c33.9,0,49.8-12.3,59.8-34.2L202.9,71.6z"/>
				<path class="st4" d="M544.9,79.1c16.3,0,23.5,2,30.3,3.7l14-30.5c-8.4,1.6-17.3,3.6-33.6,3.6h-50.4l15-32.6l57.4,0
					c16.6,0,23.8,1.9,30.5,3.7l6.5-26.8l-160.4,0c1.1,5.5,0.8,10.7-5.2,23.9l-41.9,91.6c-3.8,8.3-7.1,13.4-10.4,17.4
					c-4.3-7.4-7.4-15.9-9.5-21.9l-22.5-69.8l46.8-27.4c13.3-7.9,20.7-10.3,30.6-13.8l-64.6,0c-0.5,1.8-0.9,3.5-1.7,5.2
					c-2.1,4.7-5.6,8.1-16.8,15.1L291.4,63L309,24.2c6.1-13.3,10.8-18.4,16.8-24l-82.3,0.1c1.1,5.5,1,10.6-5.1,23.9l-41.9,91.6
					c-6,13.2-10.7,18.4-16.7,24l82.1,0c-0.9-5.7-0.8-10.8,5.1-24.1l9.7-20.9L300,80.7l14.4,59.2l239.3-0.1l18.7-26.9
					c-8.1,1.7-17,3.7-33.4,3.7h-61.5l17.2-37.5L544.9,79.1z"/>
				<path class="st4" d="M756.5,105.9c0,0-22.3,5.2-50.4,5.2c0,0-27.4,0.1-33.1,0c-7.2,0-9.4-2-6.6-8.9c2.7-6.9,30-65.5,30-65.5
					c1-2.1,4.4-7.9,13.2-7.9l51.9,0c12.9,0,24.5,4.3,24.5,4.3l8.3-32.1l-0.4,0l0.2-0.9l-111.2,0c-30.2,0-52,10.9-65.8,41l-26.3,57.5
					c-13.8,30-1.9,41,28.1,41l114.2,0L756.5,105.9z"/>
				<path class="st4" d="M958.5,115.7l41.9-91.6c6-13.2,10.8-18.4,16.6-23.9l-82.2,0c1,5.5,1,10.6-5.2,23.9L915.2,56h-52.8
					l14.7-31.9c6.1-13.3,10.8-18.4,16.8-23.9l-82.3,0c1,5.5,0.9,10.6-5.3,23.9l-41.8,91.6c-6.1,13.2-10.8,18.4-16.9,24l82.3,0
					c-0.9-5.6-0.9-10.8,5.3-24L852,79.1l52.6,0l-16.7,36.7c-6.1,13.2-10.8,18.4-16.8,24l82.1,0C952.3,134.2,952.4,129,958.5,115.7z"
					/>
				<path class="st4" d="M1106.8,116.5l-61.3,0l17.1-37.5l50.4,0c16.1,0,23.5,2,30.2,3.7l14-30.4c-8.4,1.7-17.3,3.7-33.4,3.6
					l-50.5,0l15-32.7l57.6,0c16.6,0,23.7,1.9,30.5,3.7l6.4-26.8l-160.3,0c0.9,5.5,0.8,10.6-5.3,23.9l-41.8,91.6
					c-6.1,13.2-10.9,18.5-16.8,24l163.2,0l18.7-26.9C1132.5,114.6,1123.3,116.6,1106.8,116.5z"/>
				<path class="st4" d="M1335.1,79c15.5-0.8,29.3-1.9,38.7-22.4l11.7-25.7c10.7-23.4-1.5-30.8-33.9-30.8l-152.3,0
					c2.7,5.5,2.6,10.6-3.5,23.9l-41.8,91.6c-6.1,13.2-10.7,18.4-16.8,24l82.3,0c-1-5.6-0.9-10.8,5.2-24l16.7-36.7l21.8,0l5.8,60.7
					l79,0c-3.8-5.3-3.9-12.5-5.5-21.4L1335.1,79z M1314.7,31l-7.7,17.1c-3.1,6.8-6.2,7.8-15.3,7.8l-39.9,0l15.1-32.7l39.7,0
					C1315.7,23.2,1317.9,24.3,1314.7,31z"/>
				<path class="st4" d="M1466.2,29.3c2.4-5.1,5.4-6.1,16.5-6.1l65.6,0c13.7,0,19.1,1.8,26.6,4.6L1584,0l-133.7,0.1
					c-24.9,0-44.2,11.3-54.2,33.2L1382,64.5c-10.8,23.3-3,30.2,25,30.2l57.6,0c10.9,0,12.9,1.1,10.5,6.2l-4.4,9.6
					c-2.3,5.2-5,6.1-16.2,6.1l-68.2,0c-13.8,0-19.6-2.6-25.4-5.2l-6.8,28.4l127.3,0c34,0,49.9-12.4,59.9-34.2l15.6-34.1
					c9.3-20.3-3.3-28.2-33.5-28.1h-50.1c-11,0-13.3-0.8-10.8-6.1L1466.2,29.3z"/>
			</g>
			<path class="st4" d="M1544.3,118.8c5.7,0,10.3,4.7,10.3,10.4c0,5.8-4.6,10.5-10.4,10.5c-5.7,0-10.4-4.6-10.4-10.5
				C1533.8,123.5,1538.5,118.8,1544.3,118.8L1544.3,118.8z M1544.2,120.9c-4.3,0-7.9,3.7-7.9,8.4c0,4.7,3.5,8.3,7.9,8.3
				c4.4,0.1,8-3.7,8-8.3C1552.2,124.6,1548.6,120.9,1544.2,120.9L1544.2,120.9z M1542.4,135.3h-2.4v-11.6c0.9-0.1,1.9-0.3,3.7-0.3
				c2,0,3.2,0.3,4,0.9c0.7,0.5,1,1.3,1,2.5c0,1.4-1,2.4-2.2,2.7v0.1c1,0.2,1.7,1.1,1.9,2.8c0.2,1.8,0.5,2.5,0.6,2.9h-2.5
				c-0.3-0.4-0.5-1.4-0.7-3c-0.2-1.2-0.9-1.8-2.2-1.8h-1.1V135.3z M1542.4,128.6h1.2c1.4,0,2.6-0.5,2.6-1.7c0-1-0.7-1.7-2.4-1.7
				c-0.6,0-1,0-1.3,0V128.6z"/>
		</g>
	</g>
</g>
</svg>
