<?xml version="1.0" encoding="utf-8"?>
<!-- Generator: Adobe Illustrator 22.1.0, SVG Export Plug-In . SVG Version: 6.00 Build 0)  -->
<svg version="1.1" id="Layer_1" xmlns="http://www.w3.org/2000/svg" xmlns:xlink="http://www.w3.org/1999/xlink" x="0px" y="0px"
	 viewBox="0 0 64 64" style="enable-background:new 0 0 64 64;" xml:space="preserve">
<style type="text/css">
	.st0{fill-rule:evenodd;clip-rule:evenodd;}
	.st1{fill-rule:evenodd;clip-rule:evenodd;fill:#002D55;}
	.st2{fill-rule:evenodd;clip-rule:evenodd;fill:#070809;}
	.st3{fill-rule:evenodd;clip-rule:evenodd;fill:#FFFFFF;}
	.st4{fill-rule:evenodd;clip-rule:evenodd;fill:#1C63B0;}
	.st5{fill-rule:evenodd;clip-rule:evenodd;fill:#B2B4B6;}
</style>
<g>
	<path class="st1" d="M23.1,35.9c0,0-0.1,0.1-0.2,0.4c-0.8,2,1.5,1.9,3.2,1.9c3.1,0,7,0,8.9-0.1c1.8-0.1,3.5-0.1,4.3-1.9
		c0.8-1.7-1.1-1.9-2.9-1.9c0,0-10.1,0.1-14.4-0.2c-5-0.3-5.8-2.2-4-6.1c1.4-3.1,3.1-5.3,7.7-6.1C29,21.4,35,21.4,38,21.4l5.6,0.1
		c3.2,0,6.8,0.1,7.6,2.6c0.3,1.2-0.4,2.7-1,4l-7.9,0c0.6-1.6-0.4-1.9-2.2-2c-2.5,0-7.2,0-10.1,0.1c-1.5,0.1-3.1,0.3-3.6,1.6
		c-0.9,2.1,2,1.8,3.8,1.9c0,0,8.3,0.1,10.6,0.1c6.1,0,9.3,0.9,6.8,6.4c-2.4,5.2-5.7,6.1-11.9,6.5c-4.4,0.2-11.5,0.3-15.3,0.1
		c-4.9-0.2-8-0.8-5.8-5.6l0.6-1.3H23.1z"/>
	<path class="st1" d="M61.2,21.3c-1.4-2.1-4.4-3.1-9.1-3.1c-4.9,0-16.1,0-19.3,0c-3.3,0-10.4,0-14.3,0.6c-5.7,1-8.8,4.3-10.3,7.5
		c-1,2.2-1.9,5.9,0.4,8.1c-2.4,0-3.9,0-3.9,0c0,0-1.1,1.6-1.7,2.7c-1.2,2.2-1.5,4.8,0.4,6.5c1.4,1.2,4.1,2.1,7.9,2.1
		c1.7,0,20.4,0.1,28,0c10.2,0,14-2.2,17.5-7.8c1-1.6,3-5.9-0.9-8.5c1.6,0,3.6,0,3.6,0c0,0,0.7-1.3,1.3-2.2
		C62.2,24.7,62.4,23.1,61.2,21.3 M55.6,27.6c-0.4,0.6-1,1.7-1,1.7c0,0-1.7,0-3,0c1.5,1.1,1.9,2.9,1.9,3.9c0,1.2-0.4,2.5-1.2,4
		c-2.8,5.2-5.8,7-12.2,7.3c0,0,0,0,0,0c-3,0.1-7.5,0.1-12.2,0.1c-4.6,0-11.5,0-13.1-0.1c-3-0.2-5.5-0.6-6.7-2.5
		c-1.2-2-0.3-4.3,0.2-5.3c0.3-0.6,1.3-2.4,1.3-2.4s2.6,0,4.5,0C12,33,11,30,12.6,26.9c1.8-3.6,3.8-6.1,8.6-7
		c2.9-0.6,9.5-0.6,12.3-0.6l15,0.1c2.1,0,6.3,0.1,7.8,3.1C57.3,24.4,56.4,26.3,55.6,27.6z"/>
</g>
</svg>
